<svg version="1.2" xmlns="http://www.w3.org/2000/svg" xmlns:xlink="http://www.w3.org/1999/xlink" overflow="visible" preserveAspectRatio="none" viewBox="0 0 24 24" width="24" height="24"><g><path xmlns:default="http://www.w3.org/2000/svg" id="ellipsis-v" d="M13.71,15.62c-0.19-0.19-0.44-0.29-0.71-0.29h-2c-0.55,0-1,0.45-1,1v2c0,0.55,0.45,1,1,1h2  c0.55,0,1-0.45,1-1v-2C14,16.06,13.9,15.81,13.71,15.62z M13.71,10.29C13.52,10.1,13.27,10,13,10h-2c-0.55,0-1,0.45-1,1v2  c0,0.55,0.45,1,1,1h2c0.55,0,1-0.45,1-1v-2C14,10.73,13.9,10.48,13.71,10.29z M13.71,4.96C13.52,4.77,13.27,4.67,13,4.67h-2  c-0.55,0-1,0.45-1,1v2c0,0.55,0.45,1,1,1h2c0.55,0,1-0.45,1-1v-2C13.99,5.42,13.89,5.18,13.71,5V4.96z" style="fill: rgb(255, 255, 255);" vector-effect="non-scaling-stroke"/></g></svg>